# xmcd CD database file
#
# Track frame offsets:
#	150
#	10838
#	23867
#	37611
#	49721
#	62507
#	75293
#	88079
#	98209
#	118017
#	129093
#	141840
#	156525
#	166467
#
# Disc length: 2350 seconds
#
# Revision: 0
# Processed by: cddbd v1.5.1PL2 Copyright (c) Steve Scherf et al.
# Submitted via: CDex 1.51
#
DISCID=a4092c0e
DTITLE=609 MICHAEL O'BRIEN - WAITING FOR YOU
DYEAR=1900
DGENRE=Country
TTITLE0=HAPPY TIMES
TTITLE1=SHORES OF LAKE MACNEAN
TTITLE2=JUST LOVING YOU
TTITLE3=FRIDAY NIGFHT FEELING
TTITLE4=MY OWN PECULIAR WAY
TTITLE5=BALLYHEIGE BAY
TTITLE6=LOVE IS THE ANSWER
TTITLE7=WHEN YOU GET TO HEAVEN
TTITLE8=AVE MARIA MORALIS
TTITLE9=COUNTRY I BELONG TO YOU
TTITLE10=GIRL IN YOUR ARMS
TTITLE11=MARY-ANN REGRETS
TTITLE12=TEARS IN MY EYES
TTITLE13=TEARS ON THE BRIDAL BOUQUET
EXTD=
EXTT0=
EXTT1=
EXTT2=
EXTT3=
EXTT4=
EXTT5=
EXTT6=
EXTT7=
EXTT8=
EXTT9=
EXTT10=
EXTT11=
EXTT12=
EXTT13=
PLAYORDER=
